<svg width="134" height="69" viewBox="0 0 134 69" fill="none" xmlns="http://www.w3.org/2000/svg">
<g clip-path="url(#clip0_1_3492)">
<path d="M122.667 0.110077C129.197 0.110077 133.839 5.01941 133.839 11.0356C133.839 17.0517 129.197 21.9611 122.667 21.9611C116.077 21.9611 111.521 17.0517 111.521 11.0356C111.521 5.01941 116.077 0.110077 122.667 0.110077Z" fill="#B0B2C6"/>
<path d="M0.175655 29.6405H4.11823V50.1198H0.175655V29.6405ZM28.0655 47.3765C26.6362 48.8642 24.4148 50.5274 19.9213 50.5274C13.8764 50.5274 9.20726 45.9484 9.20726 39.8221C9.20726 33.3745 14.4035 29.2299 20.097 29.2299C24.0961 29.2299 26.7255 31.1281 28.0089 32.2945L25.6148 35.1538C24.7691 34.3088 22.8693 32.7616 20.1536 32.7616C16.3301 32.7616 13.4387 35.9095 13.4387 39.8221C13.4387 43.6127 16.0949 46.9392 20.2995 46.9392C22.6341 46.9392 24.6202 45.8026 25.7309 44.7523L28.0655 47.3765ZM46.1525 32.9669H41.0427V50.1198H37.1001V32.9669H31.9902V29.6405H46.1525V32.9669ZM71.5381 40.4053H64.3259V50.1198H60.3833V29.6405H64.3259V37.0788H71.5381V29.6405H75.4807V50.1198H71.5381V40.4053ZM81.5941 29.6405H85.5366V42.7409C85.5366 45.2194 87.2578 47.0582 89.4792 47.0582C91.6976 47.0582 93.4516 45.2194 93.4516 42.7409V29.6405H97.4239V42.9135C97.4239 46.9392 94.738 50.5274 89.4524 50.5274C84.1966 50.5274 81.6 46.9392 81.6 42.9135V29.6405H81.5941ZM103.505 29.816C104.877 29.581 106.453 29.3786 108.001 29.3786C111.97 29.3786 115.824 30.5747 115.824 34.9515C115.824 36.8765 114.627 38.3374 113.954 38.8045C115.502 39.2389 117.545 41.0509 117.545 44.0233C117.545 44.666 117.455 45.3087 117.193 45.8621C116.464 48.9237 113.37 50.4144 108.111 50.4144C106.712 50.4144 105.193 50.2954 103.499 50.093V29.816H103.505ZM107.474 37.662H110.246C111.095 37.4002 111.911 36.5254 111.911 35.3264C111.911 33.315 110.306 32.7914 108.844 32.7914C108.346 32.7914 107.852 32.8479 107.471 32.9074V37.662H107.474ZM107.474 46.7339C107.998 46.7636 108.555 46.8231 109.079 46.8231C111.443 46.8231 113.489 45.9781 113.489 43.7317C113.489 42.4464 112.524 40.9885 110.979 40.6969H107.474V46.7339ZM3.47503 67.1805V67.9065H0.160767V62.1045H3.37081V62.8395H1.0273V64.2676H2.91223V65.0025H1.0273V67.1745H3.47503V67.1805ZM5.33019 67.9095V62.0837L5.47014 62.0421L7.79281 64.3301L10.1095 62.0421L10.2495 62.0837V67.9095H9.3889V63.8927L7.8345 65.4548H7.74219L6.18779 63.8927V67.9095H5.33019ZM13.1766 66.2224V67.9095H12.3071V62.1492C14.4481 61.6939 15.8894 62.5955 15.8894 64.0742C15.8894 65.4786 14.6745 66.3057 13.1766 66.2224ZM13.1766 65.4459C14.3677 65.5441 14.9961 64.9073 14.9961 64.0742C14.9961 63.3125 14.3439 62.6699 13.1766 62.8514V65.4459ZM20.2667 61.9915C22.0355 61.9915 23.3189 63.3304 23.3189 65.0144C23.3189 66.6925 22.0385 68.0225 20.2667 68.0225C18.4979 68.0225 17.2234 66.6925 17.2234 65.0144C17.2234 63.3304 18.4949 61.9915 20.2667 61.9915ZM20.2667 67.2489C21.4013 67.2489 22.3839 66.3563 22.3839 65.0174C22.3839 63.6785 21.4013 62.7621 20.2667 62.7621C19.1262 62.7621 18.1585 63.6785 18.1585 65.0174C18.1585 66.3563 19.1233 67.2489 20.2667 67.2489ZM31.9753 62.1075L29.7271 67.9749H29.6021L28.0625 63.9433L26.523 67.9749H26.398L24.1974 62.1075H25.1473L26.5111 65.9011L28.0149 62.0421H28.14L29.6527 65.9517L31.082 62.1105H31.9753V62.1075ZM36.716 67.1805V67.9065H33.3987V62.1045H36.6088V62.8395H34.2682V64.2676H36.1532V65.0025H34.2682V67.1745H36.716V67.1805ZM41.1588 65.669L42.7728 67.9095H41.674L40.3578 65.9755C40.0779 66.032 39.7861 66.0499 39.4406 66.0171V67.9095H38.5711V62.1492C40.8283 61.7029 42.1117 62.5538 42.1117 63.9909C42.1087 64.6187 41.802 65.2733 41.1588 65.669ZM39.4377 65.2406C40.5454 65.3655 41.2154 64.8121 41.2154 63.9998C41.2154 63.256 40.6109 62.6699 39.4377 62.8603V65.2406ZM44.211 62.1075H45.0805V67.9095H44.211V62.1075ZM51.3458 62.1075V67.9095H50.5031V65.4131L47.9809 63.619V67.9065H47.1382V62.0897L47.2543 62.0391L50.5031 64.3777V62.1045H51.3458V62.1075ZM56.673 65.1989H58.4597V67.115C57.7063 67.841 56.9291 68.0225 56.143 68.0225C54.2491 68.0225 53.0074 66.6687 53.0074 64.9996C53.0074 63.2382 54.4218 61.9915 56.0507 61.9915C57.1852 61.9915 57.8463 62.4527 58.2751 62.8424C58.1024 63.0477 57.9118 63.2471 57.7361 63.4524C57.3877 63.137 56.8755 62.7591 56.0834 62.7591C54.9013 62.7591 53.9573 63.735 53.9573 64.9817C53.9573 66.3028 54.8655 67.2549 56.1728 67.2549C56.7177 67.2549 57.3043 67.0317 57.6021 66.7848V65.916H56.6671V65.1989H56.673ZM62.9919 62.1075H63.8614V67.9095H62.9919V62.1075ZM70.1296 62.1075V67.9095H69.2869V65.4131L66.7647 63.619V67.9065H65.922V62.0897L66.0381 62.0391L69.2869 64.3777V62.1045H70.1296V62.1075ZM76.3978 62.1075V67.9095H75.5551V65.4131L73.0329 63.619V67.9065H72.1902V62.0897L72.3064 62.0391L75.5551 64.3777V62.1045H76.3978V62.1075ZM81.1057 61.9915C82.8745 61.9915 84.1579 63.3304 84.1579 65.0144C84.1579 66.6925 82.8775 68.0225 81.1057 68.0225C79.3369 68.0225 78.0624 66.6925 78.0624 65.0144C78.0624 63.3304 79.3339 61.9915 81.1057 61.9915ZM81.1057 67.2489C82.2402 67.2489 83.2229 66.3563 83.2229 65.0174C83.2229 63.6785 82.2402 62.7621 81.1057 62.7621C79.9652 62.7621 78.9974 63.6785 78.9974 65.0174C78.9974 66.3563 79.9652 67.2489 81.1057 67.2489ZM90.2683 62.1075L87.7045 67.9749H87.5883L85.0423 62.1075H86.025L87.6628 66.0737L89.3512 62.1075H90.2683ZM90.179 67.9095L92.8828 62.0421H92.9989L95.67 67.9095H94.7112L94.19 66.7282H91.6679L91.1468 67.9095H90.179ZM91.9716 66.0082H93.8744L92.9305 63.8005L91.9716 66.0082ZM100.021 62.8424H98.5227V67.9065H97.6532V62.8424H96.1732V62.1075H100.018V62.8424H100.021ZM101.626 62.1075H102.495V67.9095H101.626V62.1075ZM107.2 61.9915C108.969 61.9915 110.252 63.3304 110.252 65.0144C110.252 66.6925 108.972 68.0225 107.2 68.0225C105.431 68.0225 104.157 66.6925 104.157 65.0144C104.157 63.3304 105.428 61.9915 107.2 61.9915ZM107.2 67.2489C108.334 67.2489 109.317 66.3563 109.317 65.0174C109.317 63.6785 108.334 62.7621 107.2 62.7621C106.059 62.7621 105.092 63.6785 105.092 65.0174C105.092 66.3563 106.056 67.2489 107.2 67.2489ZM116.13 62.1075V67.9095H115.288V65.4131L112.765 63.619V67.9065H111.923V62.0897L112.039 62.0391L115.288 64.3777V62.1045H116.13V62.1075Z" fill="#B0B2C6"/>
</g>
<defs>
<clipPath id="clip0_1_3492">
<rect width="134" height="68.1356" fill="white"/>
</clipPath>
</defs>
</svg>
