<svg width="175" height="38" viewBox="0 0 175 38" fill="none" xmlns="http://www.w3.org/2000/svg">
<g opacity="0.5" clip-path="url(#clip0_1_3486)">
<path d="M61.7715 21.5028L60.7284 24.4548H60.6415C60.4677 23.7891 60.149 22.7762 59.6275 21.5607L54.0356 7.52454H48.5596V29.8956H52.1813V16.0909C52.1813 15.2227 52.1813 14.2388 52.1523 13.0232C52.1233 12.4155 52.0654 11.9524 52.0364 11.6052H52.1233C52.2971 12.4734 52.5 13.1101 52.6448 13.5152L59.3667 29.8377H61.9164L68.5803 13.3705C68.7251 12.9943 68.87 12.2419 69.0149 11.6052H69.1018C69.0149 13.2548 68.9569 14.7307 68.9279 15.6279V29.8088H72.7814V7.46666H67.5082L61.7715 21.5028ZM76.4321 13.7757H80.1986V29.8088H76.4321V13.7757ZM78.3443 7.00361C77.7069 7.00361 77.1854 7.23513 76.7508 7.6403C76.3162 8.04547 76.0844 8.5664 76.0844 9.20309C76.0844 9.81085 76.3162 10.3318 76.7508 10.7369C77.1854 11.1421 77.7069 11.3447 78.3443 11.3447C78.9818 11.3447 79.5322 11.1132 79.9379 10.7369C80.3725 10.3318 80.6043 9.81085 80.6043 9.20309C80.6043 8.59534 80.3725 8.07441 79.9379 7.6403C79.5612 7.23513 79.0107 7.00361 78.3443 7.00361ZM93.5554 13.631C92.8601 13.4863 92.1357 13.3995 91.4404 13.3995C89.7309 13.3995 88.1664 13.7757 86.8625 14.5282C85.5587 15.2806 84.5157 16.3225 83.8493 17.6248C83.1539 18.9561 82.8063 20.4899 82.8063 22.2553C82.8063 23.7891 83.1539 25.1493 83.8203 26.3938C84.4867 27.6093 85.4139 28.5933 86.6597 29.2589C87.8477 29.9245 89.2384 30.2718 90.8029 30.2718C92.5993 30.2718 94.1349 29.8956 95.3518 29.201L95.3808 29.1721V25.6992L95.2359 25.815C94.6854 26.2201 94.048 26.5674 93.4106 26.77C92.7442 27.0015 92.1357 27.1173 91.6142 27.1173C90.1076 27.1173 88.9197 26.6832 88.0794 25.7282C87.2102 24.8021 86.7756 23.5287 86.7756 21.9369C86.7756 20.2873 87.2102 18.985 88.1084 18.03C89.0066 17.0749 90.1945 16.5829 91.6432 16.5829C92.8601 16.5829 94.1059 16.9881 95.2359 17.7984L95.3808 17.9142V14.2388L95.3518 14.2098C94.8592 14.0072 94.3087 13.7757 93.5554 13.631ZM105.985 13.5152C105.058 13.5152 104.189 13.8046 103.435 14.4124C102.798 14.9333 102.363 15.6858 101.987 16.5829H101.958V13.7757H98.1912V29.8088H101.958V21.6186C101.958 20.2294 102.247 19.0718 102.885 18.2326C103.522 17.3643 104.334 16.9302 105.319 16.9302C105.666 16.9302 106.014 17.017 106.449 17.0749C106.854 17.1907 107.144 17.3065 107.347 17.4512L107.492 17.5669V13.8046L107.405 13.7757C107.144 13.6021 106.622 13.5152 105.985 13.5152ZM116.242 13.4284C113.605 13.4284 111.49 14.2098 110.012 15.7437C108.506 17.2775 107.781 19.3902 107.781 22.0527C107.781 24.5416 108.535 26.5674 109.983 28.0434C111.432 29.4904 113.402 30.2429 115.865 30.2429C118.444 30.2429 120.501 29.4615 121.978 27.8987C123.485 26.3359 124.209 24.2522 124.209 21.6765C124.209 19.1297 123.514 17.1039 122.094 15.6279C120.733 14.1519 118.733 13.4284 116.242 13.4284ZM119.255 25.7571C118.56 26.6543 117.459 27.0884 116.097 27.0884C114.735 27.0884 113.634 26.6543 112.852 25.6992C112.07 24.8021 111.693 23.4997 111.693 21.8501C111.693 20.1426 112.098 18.8403 112.852 17.9142C113.634 16.9881 114.706 16.5251 116.068 16.5251C117.401 16.5251 118.444 16.9592 119.197 17.8563C119.95 18.7535 120.356 20.0558 120.356 21.7633C120.298 23.4997 119.979 24.8599 119.255 25.7571ZM132.612 20.432C131.424 19.94 130.67 19.5638 130.323 19.2455C130.033 18.9561 129.888 18.5509 129.888 18.03C129.888 17.5959 130.062 17.1617 130.497 16.8723C130.931 16.5829 131.424 16.4382 132.148 16.4382C132.786 16.4382 133.452 16.554 134.089 16.7276C134.727 16.9013 135.306 17.1617 135.77 17.509L135.915 17.6248V14.094L135.828 14.0651C135.393 13.8915 134.814 13.7178 134.118 13.5731C133.423 13.4574 132.786 13.3995 132.264 13.3995C130.468 13.3995 128.99 13.8336 127.831 14.7886C126.672 15.6858 126.122 16.9013 126.122 18.3194C126.122 19.0718 126.238 19.7375 126.498 20.2873C126.759 20.8372 127.136 21.3581 127.657 21.7922C128.179 22.1974 128.932 22.6605 129.975 23.0946C130.844 23.4708 131.511 23.7602 131.916 23.9917C132.322 24.2232 132.583 24.4837 132.786 24.6863C132.93 24.9178 133.017 25.2072 133.017 25.5835C133.017 26.6543 132.206 27.1752 130.555 27.1752C129.917 27.1752 129.251 27.0594 128.469 26.799C127.686 26.5385 126.962 26.1623 126.353 25.7282L126.209 25.6124V29.2878L126.295 29.3168C126.846 29.5773 127.512 29.7509 128.324 29.9535C129.135 30.0982 129.859 30.2139 130.497 30.2139C132.438 30.2139 134.031 29.7798 135.161 28.8248C136.32 27.8987 136.929 26.7121 136.929 25.1783C136.929 24.1075 136.639 23.1524 136.002 22.4289C135.161 21.7344 134.118 21.0108 132.612 20.432ZM146.867 13.4284C144.23 13.4284 142.115 14.2098 140.637 15.7437C139.16 17.2775 138.406 19.3902 138.406 22.0527C138.406 24.5416 139.16 26.5674 140.608 28.0434C142.057 29.4904 144.027 30.2429 146.49 30.2429C149.069 30.2429 151.126 29.4615 152.603 27.8987C154.11 26.3359 154.834 24.2522 154.834 21.6765C154.834 19.1297 154.139 17.1039 152.719 15.6279C151.358 14.1519 149.358 13.4284 146.867 13.4284ZM149.851 25.7571C149.156 26.6543 148.055 27.0884 146.693 27.0884C145.302 27.0884 144.23 26.6543 143.448 25.6992C142.666 24.8021 142.289 23.4997 142.289 21.8501C142.289 20.1426 142.695 18.8403 143.448 17.9142C144.23 16.9881 145.302 16.5251 146.664 16.5251C147.968 16.5251 149.04 16.9592 149.793 17.8563C150.546 18.7535 150.952 20.0558 150.952 21.7633C150.952 23.4997 150.575 24.8599 149.851 25.7571ZM174.971 16.8723V13.7757H171.175V9.02945L171.06 9.05839L167.467 10.1292L167.38 10.1581V13.7757H161.701V11.7499C161.701 10.8238 161.933 10.1003 162.339 9.6372C162.744 9.17415 163.353 8.94263 164.106 8.94263C164.627 8.94263 165.178 9.05839 165.786 9.31886L165.931 9.40568V6.13539L165.844 6.10645C165.323 5.93281 164.627 5.81705 163.729 5.81705C162.599 5.81705 161.614 6.07751 160.716 6.51162C159.818 7.00361 159.151 7.66924 158.659 8.5664C158.166 9.43462 157.906 10.4186 157.906 11.5473V13.7757H155.269V16.8434H157.906V29.8088H161.701V16.8723H167.38V25.1204C167.38 28.5065 168.973 30.2139 172.161 30.2139C172.682 30.2139 173.233 30.1271 173.754 30.0403C174.305 29.9245 174.71 29.7798 174.942 29.6641L174.971 29.6351V26.5385L174.826 26.6543C174.594 26.799 174.392 26.9147 174.044 27.0015C173.754 27.0884 173.493 27.1173 173.291 27.1173C172.537 27.1173 172.016 26.9437 171.639 26.5096C171.291 26.1044 171.118 25.4388 171.118 24.4548V16.8723H174.971Z" fill="#60658C"/>
<path d="M0 0H17.7608V17.7406H0V0Z" fill="#60658C"/>
<path d="M19.6151 0H37.3759V17.7406H19.6151V0Z" fill="#60658C"/>
<path d="M0 19.5928H17.7608V37.3333H0V19.5928Z" fill="#60658C"/>
<path d="M19.6151 19.5928H37.3759V37.3333H19.6151V19.5928Z" fill="#60658C"/>
</g>
<defs>
<clipPath id="clip0_1_3486">
<rect width="175" height="37.3333" fill="white"/>
</clipPath>
</defs>
</svg>
