<svg width="188" height="32" viewBox="0 0 188 32" fill="none" xmlns="http://www.w3.org/2000/svg">
<g opacity="0.5">
<path d="M87.1525 12.8839C84.3656 12.8839 82.3888 15.1292 82.3888 18.5757V31.2184H78.1346V8.96524H82.3379V11.6826C82.8563 10.782 83.5993 10.0405 84.4897 9.53503C85.3802 9.02956 86.3857 8.7785 87.4022 8.80786H88.9306V12.8839H87.1525ZM75.1949 20.0918C75.1949 13.4557 70.6095 8.49311 64.404 8.49311C62.9378 8.50336 61.488 8.81201 60.1381 9.40132C58.7882 9.99062 57.5647 10.8489 56.5382 11.9269C55.5116 13.0049 54.7022 14.2812 54.1565 15.6824C53.6108 17.0837 53.3395 18.5822 53.3584 20.0918C53.3584 26.7226 58.3258 31.7377 64.8065 31.7377C66.6168 31.7729 68.4087 31.3595 70.0314 30.5324C71.654 29.7052 73.0597 28.4886 74.1301 26.9849L71.0426 24.6557C70.3343 25.6737 69.397 26.4998 68.311 27.0635C67.225 27.6271 66.0225 27.9116 64.8065 27.8925C63.0745 27.884 61.4028 27.237 60.0943 26.0687C58.7858 24.9004 57.927 23.2881 57.6737 21.5239H75.2051L75.1949 20.0918ZM57.7654 18.0511C58.5245 14.657 61.1586 12.3593 64.353 12.3593C67.5475 12.3593 70.1765 14.657 70.8897 18.0511H57.7654ZM39.8825 8.49311C38.4608 8.49434 37.0534 8.78565 35.7416 9.35021C34.4299 9.91477 33.2398 10.7414 32.2402 11.7823V0.655731H27.986V31.2184H32.1892V28.3961C34.2255 30.517 36.9962 31.719 39.8927 31.7377C41.3952 31.7706 42.8889 31.4942 44.2863 30.9249C45.6838 30.3556 46.9567 29.5048 48.0306 28.4223C49.1045 27.3398 49.9577 26.0475 50.5402 24.621C51.1226 23.1946 51.4227 21.6628 51.4227 20.1154C51.4227 18.568 51.1226 17.0362 50.5402 15.6098C49.9577 14.1833 49.1045 12.891 48.0306 11.8085C46.9567 10.726 45.6838 9.87517 44.2863 9.30587C42.8889 8.73656 41.3952 8.46024 39.8927 8.49311H39.8825ZM39.5768 27.8243C38.0939 27.8315 36.6424 27.3851 35.4064 26.5416C34.1704 25.6981 33.2056 24.4955 32.6344 23.0865C32.0632 21.6775 31.9113 20.1256 32.1982 18.6276C32.485 17.1296 33.1975 15.7531 34.2453 14.6727C35.2931 13.5923 36.629 12.8568 38.0835 12.5595C39.538 12.2621 41.0454 12.4163 42.4147 13.0025C43.7839 13.5887 44.9531 14.5805 45.774 15.852C46.5949 17.1235 47.0305 18.6174 47.0255 20.1443C47.0268 21.1513 46.835 22.1488 46.461 23.0793C46.087 24.0098 45.5382 24.8552 44.8462 25.5668C44.1541 26.2784 43.3323 26.8423 42.4281 27.2261C41.5238 27.6099 40.5548 27.806 39.5768 27.8033V27.8243ZM12.3193 27.6144C16.4258 27.6144 19.6152 24.3725 19.6152 19.5147V0.655731H24.0222V31.2184H19.6661V28.3279C18.6484 29.4109 17.4279 30.2701 16.0784 30.8535C14.7289 31.4368 13.2785 31.7323 11.8149 31.722C5.48204 31.722 0.606262 26.9692 0.606262 19.7613V0.655731H5.09483V19.541C5.09483 24.4249 8.15174 27.6144 12.3193 27.6144Z" fill="#60658C"/>
<path d="M99.5126 0.655731H120.335V5.90163H105.137V13.3508H119.912V18.4184H105.137V25.9934H120.335V31.2393H99.5126V0.655731ZM177.841 31.7902C184.225 31.7902 187.822 28.6426 187.822 24.32C187.822 21.2407 185.692 18.9429 181.234 17.9462L176.521 16.9547C173.785 16.4302 172.924 15.9056 172.924 14.8564C172.924 13.4977 174.244 12.6636 176.674 12.6636C179.308 12.6636 181.259 13.3928 181.769 15.9003H187.292C186.991 11.179 183.695 8.06295 177.01 8.06295C171.233 8.06295 167.177 10.518 167.177 15.2761C167.177 18.5652 169.409 20.7056 174.223 21.7495L179.492 23.0033C181.57 23.4229 182.126 24 182.126 24.8866C182.126 26.2977 180.556 27.1843 178.019 27.1843C174.83 27.1843 173.006 26.4551 172.298 23.9475H166.744C167.554 28.6584 170.947 31.7902 177.841 31.7902ZM165.139 31.2184H159.163C155.413 31.2184 153.335 28.8157 153.335 25.7836V13.7705H149.131V8.65048H153.355V2.22426H158.908V8.65048H165.139V13.7705H158.908V24.32C158.908 25.5213 159.718 26.0984 160.987 26.0984H165.139V31.2184ZM141.194 8.66098V10.6964C139.238 8.99454 136.759 8.06475 134.198 8.07344C132.666 8.04024 131.142 8.32243 129.716 8.90345C128.291 9.48448 126.992 10.3527 125.897 11.4571C124.801 12.5615 123.931 13.88 123.337 15.3352C122.743 16.7905 122.437 18.3532 122.437 19.9318C122.437 21.5104 122.743 23.0731 123.337 24.5284C123.931 25.9836 124.801 27.3021 125.897 28.4065C126.992 29.5109 128.291 30.3791 129.716 30.9601C131.142 31.5412 132.666 31.8234 134.198 31.7902C136.759 31.8016 139.24 30.8715 141.194 29.1672V31.2079H146.732V8.65048L141.194 8.66098ZM134.657 26.838C133.328 26.8536 132.025 26.4622 130.914 25.7135C129.802 24.9648 128.931 23.8927 128.412 22.6333C127.894 21.374 127.75 19.9843 128.001 18.6408C128.251 17.2974 128.883 16.0609 129.818 15.0884C130.752 14.116 131.946 13.4515 133.248 13.1795C134.55 12.9075 135.901 13.0402 137.13 13.5607C138.358 14.0813 139.409 14.9661 140.148 16.1029C140.887 17.2397 141.281 18.577 141.28 19.9449C141.288 20.8466 141.123 21.7411 140.793 22.5765C140.463 23.4118 139.975 24.1715 139.358 24.8116C138.741 25.4517 138.007 25.9595 137.199 26.3055C136.39 26.6515 135.522 26.829 134.647 26.8275L134.657 26.838Z" fill="#60658C"/>
</g>
</svg>
